<?xml version="1.0" standalone="no"?>
<!DOCTYPE svg PUBLIC "-//W3C//DTD SVG 20010904//EN"
 "http://www.w3.org/TR/2001/REC-SVG-20010904/DTD/svg10.dtd">
<svg version="1.0" xmlns="http://www.w3.org/2000/svg"
 width="457.000000pt" height="417.000000pt" viewBox="0 0 457.000000 417.000000"
 preserveAspectRatio="xMidYMid meet">

<g transform="translate(0.000000,417.000000) scale(0.100000,-0.100000)"
fill="#000000" stroke="none">
<path d="M0 2085 l0 -2085 2285 0 2285 0 0 2085 0 2085 -2285 0 -2285 0 0
-2085z m2553 1824 c382 -65 730 -240 1010 -509 129 -123 200 -208 291 -347
299 -456 390 -1023 251 -1558 -93 -357 -312 -712 -589 -956 -471 -415 -1118
-580 -1726 -441 -74 17 -75 18 -78 51 -2 18 1 38 7 44 6 6 11 21 11 34 0 13 4
31 9 41 5 9 14 31 21 47 23 55 73 149 86 163 8 7 14 18 14 23 0 12 -67 12 -75
-1 -3 -5 -22 -10 -41 -10 -19 0 -34 5 -34 10 0 6 9 10 20 10 11 0 20 5 20 10
0 6 19 10 43 10 43 0 97 18 97 33 0 4 20 26 45 49 24 23 42 45 39 50 -3 4 -35
8 -71 8 -37 0 -63 3 -60 7 4 4 32 6 61 4 30 -1 57 2 61 8 3 6 18 11 32 11 36
0 103 31 103 47 0 7 5 13 10 13 17 0 11 25 -10 48 -11 12 -20 27 -20 34 0 8
-9 20 -20 28 -11 8 -20 20 -20 28 0 7 -9 22 -20 34 -11 12 -20 28 -20 35 0 8
-12 13 -32 13 -35 0 -108 29 -108 43 0 10 -57 -28 -87 -59 -13 -13 -23 -28
-23 -34 0 -5 -3 -10 -8 -10 -9 0 -25 -37 -52 -125 -12 -38 -27 -78 -32 -89 -6
-12 -6 -22 1 -29 8 -8 11 -8 11 1 0 7 9 12 20 12 11 0 20 -7 20 -15 0 -8 -4
-15 -10 -15 -5 0 -10 -11 -10 -24 0 -14 -5 -28 -10 -31 -13 -8 -13 -115 0
-115 6 0 10 -4 10 -10 0 -5 -7 -10 -16 -10 -22 0 -44 -25 -44 -50 0 -12 -13
-34 -28 -48 -39 -38 -122 -146 -122 -160 0 -18 -90 21 -210 90 -478 276 -804
708 -930 1230 -136 568 -16 1164 329 1622 341 454 838 727 1421 780 94 8 344
-5 463 -25z m-740 -3216 c-7 -2 -21 -2 -30 0 -10 3 -4 5 12 5 17 0 24 -2 18
-5z"/>
<path d="M1895 3580 c-3 -5 -19 -10 -35 -10 -16 0 -32 -4 -35 -10 -3 -5 -17
-10 -31 -10 -13 0 -24 -4 -24 -10 0 -5 -9 -10 -20 -10 -11 0 -20 -4 -20 -10 0
-5 -9 -10 -20 -10 -11 0 -20 -4 -20 -10 0 -5 -9 -10 -20 -10 -11 0 -20 -4 -20
-8 0 -5 -11 -14 -24 -20 -39 -17 -137 -105 -171 -153 -23 -32 -55 -98 -55
-113 0 -9 -4 -16 -10 -16 -5 0 -10 -9 -10 -20 0 -11 -4 -20 -10 -20 -5 0 -10
-11 -10 -24 0 -13 -4 -26 -8 -28 -5 -1 -11 -30 -14 -63 -3 -33 -3 -53 0 -45 3
8 13 22 24 31 10 9 18 21 18 28 0 6 5 11 10 11 6 0 10 5 10 11 0 6 30 39 66
75 50 48 73 64 95 64 15 0 31 5 34 10 3 6 17 10 31 10 13 0 24 5 24 10 0 6 9
10 20 10 11 0 20 4 20 8 0 5 11 14 24 20 19 9 28 7 44 -9 39 -36 164 -19 178
24 3 9 10 17 16 17 6 0 6 6 -2 15 -15 18 -18 16 50 40 30 10 58 23 62 29 5 7
13 5 25 -6 11 -11 13 -18 5 -18 -7 0 -12 -4 -12 -10 0 -5 9 -10 19 -10 11 0
21 -6 23 -12 3 -9 10 -7 23 6 17 17 20 17 30 2 14 -18 32 -21 37 -5 5 16 215
13 258 -4 69 -26 120 -52 120 -59 0 -5 13 -8 29 -8 17 0 33 -4 36 -10 3 -5 15
-10 26 -10 10 0 19 5 19 10 0 6 -4 10 -8 10 -5 0 -14 11 -20 25 -7 14 -18 33
-24 42 -17 21 -130 134 -150 150 -26 20 -97 53 -113 53 -8 0 -15 5 -15 10 0 6
-11 10 -24 10 -14 0 -28 5 -31 10 -3 6 -24 10 -45 10 -21 0 -42 5 -45 10 -4 6
-70 10 -165 10 -95 0 -161 -4 -165 -10z m245 -199 c0 -6 -4 -13 -10 -16 -5 -3
-10 1 -10 9 0 9 5 16 10 16 6 0 10 -4 10 -9z"/>
<path d="M2315 2696 c-104 -29 -130 -59 -133 -148 l-2 -68 30 0 c17 0 30 -5
30 -12 0 -10 2 -10 8 0 12 19 113 33 230 33 l103 -1 -18 24 c-19 25 -73 56
-98 56 -8 0 -15 5 -15 10 0 6 -24 10 -52 11 l-53 0 63 21 c34 11 62 23 62 27
0 6 -106 63 -113 60 -1 -1 -20 -6 -42 -13z"/>
<path d="M2960 2669 c0 -52 24 -48 28 4 2 28 -1 37 -12 37 -12 0 -16 -11 -16
-41z"/>
<path d="M1713 2638 c-24 -6 -43 -15 -43 -19 0 -5 -12 -9 -27 -9 -18 0 -44
-14 -70 -38 -36 -31 -44 -45 -50 -87 -6 -46 -5 -49 10 -36 11 9 17 10 17 2 0
-6 9 -11 20 -11 13 0 20 -7 20 -20 0 -12 -7 -20 -17 -20 -11 0 -14 -3 -7 -10
5 -5 68 -11 139 -12 99 -2 135 1 153 12 30 20 28 30 -8 30 -16 0 -30 5 -30 10
0 6 28 10 65 10 37 0 65 4 65 10 0 6 7 10 15 10 8 0 15 -4 15 -10 0 -5 5 -10
10 -10 6 0 10 18 10 40 0 22 -4 40 -10 40 -5 0 -10 7 -10 15 0 32 -25 66 -65
85 -50 24 -145 33 -202 18z m42 -108 c3 -5 -3 -10 -15 -10 -12 0 -18 5 -15 10
3 6 10 10 15 10 5 0 12 -4 15 -10z m-2 -102 c4 -10 8 -9 16 2 7 10 11 11 11 3
0 -7 7 -13 15 -13 8 0 15 -4 15 -10 0 -5 -9 -10 -19 -10 -11 0 -22 -6 -25 -12
-5 -10 -7 -10 -12 0 -3 6 -14 12 -25 12 -22 0 -24 11 -7 28 15 15 25 15 31 0z"/>
<path d="M2528 2643 c7 -3 16 -2 19 1 4 3 -2 6 -13 5 -11 0 -14 -3 -6 -6z"/>
<path d="M1340 2540 c0 -11 5 -20 10 -20 6 0 10 -9 10 -20 0 -11 5 -20 10 -20
6 0 10 -10 10 -22 1 -21 2 -21 11 -5 6 9 9 32 7 50 -2 24 -7 31 -20 29 -11 -2
-18 3 -18 13 0 8 -4 15 -10 15 -5 0 -10 -9 -10 -20z"/>
<path d="M1226 2543 c-21 -21 19 -83 53 -83 12 0 21 5 21 10 0 6 -3 10 -8 10
-4 0 -13 13 -20 29 -13 29 -35 45 -46 34z"/>
<path d="M2860 2521 c0 -11 -6 -22 -12 -25 -9 -3 -6 -11 10 -24 12 -11 22 -24
22 -29 0 -5 9 -18 19 -30 10 -11 21 -29 23 -39 4 -18 4 -18 15 1 14 26 -6 88
-36 114 -12 10 -21 26 -21 35 0 9 -4 16 -10 16 -5 0 -10 -9 -10 -19z"/>
<path d="M2300 2450 c0 -5 9 -10 21 -10 11 0 17 5 14 10 -3 6 -13 10 -21 10
-8 0 -14 -4 -14 -10z"/>
<path d="M1360 2400 c0 -11 -4 -20 -10 -20 -16 0 -12 -50 5 -66 13 -14 17 -14
30 0 17 16 21 66 5 66 -5 0 -10 9 -10 20 0 11 -4 20 -10 20 -5 0 -10 -9 -10
-20z"/>
<path d="M2320 2172 c0 -17 148 -182 164 -182 3 0 6 9 6 20 0 11 -4 20 -8 20
-4 0 -16 13 -25 29 -22 38 -86 104 -115 120 -19 10 -22 9 -22 -7z"/>
<path d="M1879 2119 c-13 -17 -33 -41 -44 -53 -46 -51 -58 -96 -27 -96 12 0
25 14 37 40 21 46 47 80 63 80 11 0 22 23 22 46 0 24 -27 15 -51 -17z"/>
<path d="M2330 2090 c0 -11 5 -20 10 -20 6 0 10 9 10 20 0 11 -4 20 -10 20 -5
0 -10 -9 -10 -20z"/>
<path d="M1929 2013 c0 -10 -2 -26 -4 -36 -3 -14 1 -16 16 -12 11 4 19 2 19
-4 0 -6 9 -11 19 -11 11 0 27 -7 36 -16 35 -36 180 -15 233 33 7 7 20 16 28
21 9 5 12 15 8 25 -7 18 -34 24 -34 7 0 -5 -7 -10 -15 -10 -8 0 -15 -4 -15
-10 0 -5 -9 -10 -19 -10 -11 0 -23 -4 -26 -10 -3 -5 -26 -10 -51 -10 -24 0
-44 5 -44 10 0 6 -6 10 -13 10 -7 0 -23 9 -35 20 -28 27 -102 28 -103 3z"/>
<path d="M1850 1953 c0 -11 7 -23 15 -27 19 -7 19 3 0 28 -15 19 -15 19 -15
-1z"/>
<path d="M2360 1910 c-32 -7 -33 -8 -12 -15 28 -9 28 -35 1 -58 -19 -17 -23
-39 -6 -38 4 1 13 1 20 1 6 1 30 16 52 35 37 32 38 35 25 59 -14 27 -21 28
-80 16z"/>
<path d="M1914 1887 c-79 -16 -91 -68 -21 -92 20 -7 52 -29 71 -49 40 -40 48
-43 66 -21 9 11 34 15 94 15 71 1 79 2 63 14 -13 10 -27 12 -50 5 -23 -6 -35
-5 -47 6 -9 8 -33 15 -53 15 -20 0 -37 4 -37 9 0 5 -13 14 -30 21 -16 7 -30
18 -30 26 0 10 20 14 83 14 121 1 150 4 154 16 7 21 -189 37 -263 21z"/>
<path d="M2241 1874 c0 -11 3 -14 6 -6 3 7 2 16 -1 19 -3 4 -6 -2 -5 -13z"/>
<path d="M852 1808 c-10 -13 -32 -105 -32 -133 0 -25 18 -17 65 30 52 53 58
86 20 103 -33 15 -40 15 -53 0z"/>
<path d="M2277 1802 c-16 -2 -37 -12 -48 -23 -19 -19 -19 -19 5 -19 34 0 86
24 78 35 -4 6 -20 9 -35 7z"/>
<path d="M450 1650 c0 -5 -7 -10 -15 -10 -8 0 -15 -4 -15 -10 0 -13 16 -13 57
2 41 15 43 28 3 28 -16 0 -30 -4 -30 -10z"/>
<path d="M1666 1628 c9 -44 24 -60 24 -24 0 15 -7 34 -15 42 -13 13 -14 11 -9
-18z"/>
<path d="M2100 1606 c0 -31 80 -36 112 -6 l22 20 -67 0 c-51 0 -67 -3 -67 -14z"/>
<path d="M1704 1544 c3 -9 6 -33 6 -54 0 -30 5 -40 21 -45 l20 -7 -20 -18
c-16 -13 -21 -29 -21 -64 0 -25 5 -46 10 -46 6 0 10 -13 10 -30 0 -16 5 -30
10 -30 6 0 10 -7 10 -15 0 -8 5 -15 10 -15 6 0 10 -5 10 -11 0 -11 59 -69 72
-69 3 0 1 11 -5 25 -7 14 -15 25 -19 25 -5 0 -8 8 -8 18 0 10 -9 24 -20 32
-21 15 -28 50 -10 50 6 0 10 -5 10 -12 0 -6 2 -9 5 -6 11 11 -8 38 -26 38 -14
0 -19 7 -19 28 1 24 2 25 14 10 7 -10 18 -18 25 -18 6 0 19 -19 28 -42 9 -23
19 -36 21 -30 6 19 30 14 37 -8 9 -28 69 -85 115 -110 17 -9 19 -14 9 -26 -9
-11 -8 -14 8 -14 10 0 25 -6 31 -12 9 -9 15 -10 20 -2 4 6 32 24 62 39 30 15
57 30 60 34 3 3 17 12 32 20 15 8 37 22 47 33 11 10 25 18 31 18 5 0 10 5 10
10 0 6 7 10 15 10 8 0 15 5 15 10 0 6 8 10 18 10 10 0 24 9 32 20 8 11 19 20
25 20 5 0 26 14 45 30 19 16 39 30 43 30 5 0 22 14 37 30 15 17 33 30 39 30 6
0 11 5 11 10 0 14 -77 -26 -106 -55 -13 -13 -33 -26 -44 -30 -11 -3 -20 -11
-20 -16 0 -5 -13 -9 -30 -9 -16 0 -30 -4 -30 -10 0 -5 -9 -10 -21 -10 -16 0
-19 4 -14 20 5 15 2 20 -11 20 -13 0 -15 -6 -10 -30 5 -30 5 -30 -39 -30 -24
0 -47 -4 -50 -10 -3 -5 -19 -10 -36 -10 -16 0 -29 5 -29 10 0 6 5 10 10 10 6
0 10 5 10 10 0 6 -9 10 -20 10 -13 0 -20 7 -20 19 0 20 -18 31 -52 31 -26 0
-107 53 -175 114 -28 25 -58 46 -67 46 -9 0 -16 5 -16 11 0 6 -8 8 -19 4 -11
-3 -25 1 -34 10 -21 21 -61 20 -53 -1z"/>
<path d="M1864 1115 c8 -8 18 -15 22 -15 3 0 1 7 -6 15 -7 8 -17 15 -22 15 -5
0 -3 -7 6 -15z"/>
<path d="M1903 1093 c-10 -4 -9 -9 3 -20 18 -18 24 -15 15 8 -3 9 -12 14 -18
12z"/>
<path d="M1612 953 c-17 -30 -15 -37 4 -19 8 9 14 22 11 29 -2 7 -8 4 -15 -10z"/>
<path d="M1525 800 c-3 -11 -11 -20 -16 -20 -5 0 -9 -9 -9 -20 0 -11 -4 -20
-10 -20 -5 0 -10 -8 -10 -17 1 -24 70 55 70 80 0 23 -17 22 -25 -3z"/>
<path d="M1593 734 c-3 -8 -1 -20 6 -27 8 -8 11 -4 11 16 0 30 -7 35 -17 11z"/>
</g>
</svg>
